<svg width="469" height="469" viewBox="0 0 469 469" fill="none" xmlns="http://www.w3.org/2000/svg">
<g clip-path="url(#clip0_2113_192)">
<rect width="469" height="469" fill="#00B67A"/>
<path d="M-781.125 316.043L-709.836 297.977L-680.051 389.773L-781.125 316.043ZM-617.063 197.391H-742.551L-781.125 79.2266L-819.699 197.391H-945.188L-843.625 270.633L-882.199 388.797L-780.637 315.555L-718.137 270.633L-617.063 197.391ZM-273.312 316.043L-202.023 297.977L-172.238 389.773L-273.312 316.043ZM-109.25 197.391H-234.738L-273.312 79.2266L-311.887 197.391H-437.375L-335.813 270.633L-374.387 388.797L-272.824 315.555L-210.324 270.633L-109.25 197.391ZM234.5 316.043L305.789 297.977L335.574 389.773L234.5 316.043ZM398.563 197.391H273.074L234.5 79.2266L195.926 197.391H70.4375L172 270.633L133.426 388.797L234.988 315.555L297.488 270.633L398.563 197.391ZM742.313 316.043L813.602 297.977L843.387 389.773L742.313 316.043ZM906.375 197.391H780.887L742.313 79.2266L703.738 197.391H578.25L679.813 270.633L641.238 388.797L742.801 315.555L805.301 270.633L906.375 197.391ZM1250.13 316.043L1321.41 297.977L1351.2 389.773L1250.13 316.043ZM1414.19 197.391H1288.7L1250.13 79.2266L1211.55 197.391H1086.06L1187.63 270.633L1149.05 388.797L1250.61 315.555L1313.11 270.633L1414.19 197.391Z" fill="white"/>
</g>
<defs>
<clipPath id="clip0_2113_192">
<rect width="469" height="469" fill="white"/>
</clipPath>
</defs>
</svg>
